<svg xmlns="http://www.w3.org/2000/svg" viewBox="0 0 256 256" stroke="#333" stroke-width="2" stroke-linecap="round" stroke-linejoin="round">
	<linearGradient id="gradient" x1="0" y1="0" x2="1" y2="1">
		<stop offset="16.67%" stop-color="#ffc" />
		<stop offset="16.67%" stop-color="#fcc" />
		<stop offset="33.33%" stop-color="#fcc" />
		<stop offset="33.33%" stop-color="#fcf" />
		<stop offset="50.00%" stop-color="#fcf" />
		<stop offset="50.00%" stop-color="#ccf" />
		<stop offset="66.67%" stop-color="#ccf" />
		<stop offset="66.67%" stop-color="#cff" />
		<stop offset="83.33%" stop-color="#cff" />
		<stop offset="83.33%" stop-color="#cfc" />
	</linearGradient>
	<symbol id="letter-." viewBox="0 0 12 32">
		<path d="
			M6,26
			L6,26
		" />
	</symbol>
	<symbol id="letter-a" viewBox="0 0 20 32">
		<path d="
			M6,14
			Q6,10,10,10
			Q14,10,14,14
			L14,22
			Q14,26,10,26
			Q6,26,6,22
			Q6,18,10,18
			Q14,18,14,14
			M14,22
			L14,26
		" />
	</symbol>
	<symbol id="letter-l" viewBox="0 0 14 32">
		<path d="
			M8,26
			Q6,26,6,24
			L6,6
		" />
	</symbol>
	<symbol id="letter-g" viewBox="0 0 20 40">
		<path d="
			M6,14
			Q6,10,10,10
			Q14,10,14,14
			L14,22
			Q14,26,10,26
			Q6,26,6,22
			L6,14
			M14,10
			L14,14
			M14,22
			L14,30
			Q14,34,10,34
			Q6,34,6,30
		" />
	</symbol>
	<symbol id="letter-o" viewBox="0 0 20 32">
		<path d="
			M6,14
			Q6,10,10,10
			Q14,10,14,14
			L14,22
			Q14,26,10,26
			Q6,26,6,22
			L6,14
		" />
	</symbol>
	<symbol id="letter-6" viewBox="0 0 20 32">
		<path d="
			M6,20
			Q6,16,10,16
			Q14,16,14,20
			L14,22
			Q14,26,10,26
			Q6,26,6,22
			L6,10
			Q6,6,10,6
			Q14,6,14,10
		" />
	</symbol>
	<symbol id="letter-0" viewBox="0 0 20 32">
		<path d="
			M6,10
			Q6,6,10,6
			Q14,6,14,10
			L14,22
			Q14,26,10,26
			Q6,26,6,22
			L6,10
			M6,20
			L14,12
		" />
	</symbol>
	<symbol id=".algol60" viewBox="0 0 88 40">
		<use href="#letter-." x="0" y="0" width="12" height="32" />
		<use href="#letter-a" x="4" y="0" width="20" height="32" />
		<use href="#letter-l" x="17" y="0" width="14" height="32" />
		<use href="#letter-g" x="23" y="0" width="20" height="40" />
		<use href="#letter-o" x="36" y="0" width="20" height="32" />
		<use href="#letter-l" x="49" y="0" width="14" height="32" />
		<use href="#letter-6" x="55" y="0" width="20" height="32" />
		<use href="#letter-0" x="68" y="0" width="20" height="32" />
	</symbol>
	<rect x="32" y="32" width="192" height="192" rx="32" ry="32" fill="url(#gradient)" stroke-width="8" />
	<rect x="40" y="96" width="176" height="64" rx="8" ry="8" fill="#3333" stroke="none" />
	<use href="#.algol60" x="40" y="96" width="176" height="80" fill="none" stroke-width="4" />
</svg>
